<?xml version="1.0" standalone="no"?>
<!DOCTYPE svg PUBLIC "-//W3C//DTD SVG 20010904//EN"
 "http://www.w3.org/TR/2001/REC-SVG-20010904/DTD/svg10.dtd">
<svg version="1.0" xmlns="http://www.w3.org/2000/svg"
 width="880.000000pt" height="654.000000pt" viewBox="0 0 880.000000 654.000000"
 preserveAspectRatio="xMidYMid meet">
<metadata>
Created by potrace 1.15, written by Peter Selinger 2001-2017
</metadata>
<g transform="translate(0.000000,654.000000) scale(0.100000,-0.100000)"
fill="#000000" stroke="none">
<path d="M4140 6114 c-14 -2 -65 -9 -115 -15 -884 -107 -1685 -657 -2133
-1464 -367 -660 -448 -1501 -215 -2230 283 -885 969 -1575 1848 -1858 258 -83
503 -125 785 -134 812 -26 1576 282 2141 863 438 452 709 1019 791 1659 7 59
12 202 12 345 -1 279 -18 426 -80 680 -86 350 -257 713 -474 1005 -473 639
-1179 1048 -1965 1140 -117 14 -520 19 -595 9z m-289 -879 c23 -17 53 -50 66
-74 20 -39 23 -58 23 -158 l0 -113 489 0 488 0 5 113 c5 120 21 168 70 214 83
78 228 68 305 -20 42 -48 53 -91 53 -209 l0 -97 303 -3 302 -3 56 -26 c109
-51 180 -149 199 -276 7 -46 10 -519 8 -1448 l-3 -1380 -24 -60 c-33 -81 -115
-163 -196 -196 l-60 -24 -1394 -3 c-868 -1 -1414 1 -1447 7 -118 22 -206 87
-256 189 -28 55 -34 81 -38 156 l-5 89 -77 18 c-180 43 -278 130 -278 247 0
51 15 93 61 172 138 238 232 647 280 1225 6 77 14 347 18 600 l6 460 28 57
c35 72 93 130 165 165 57 28 58 28 290 31 l232 3 0 108 c0 95 3 113 26 159 20
41 38 60 78 83 45 27 58 30 118 27 55 -3 75 -9 109 -33z"/>
<path d="M2940 4036 c0 -237 -44 -748 -86 -996 -52 -314 -122 -540 -230 -749
-52 -103 -55 -111 -42 -137 17 -37 100 -78 198 -98 41 -8 760 -113 1596 -233
l1521 -218 59 30 c44 23 66 42 89 79 l30 49 3 1159 2 1158 -1570 0 -1570 0 0
-44z m3048 -698 l-3 -623 -282 -3 -283 -2 0 -280 0 -280 -1185 0 -1185 0 0
625 0 625 565 0 565 0 0 280 0 280 905 0 905 0 -2 -622z"/>
<path d="M4290 3620 l0 -220 225 0 225 0 0 220 0 220 -225 0 -225 0 0 -220z"/>
<path d="M4860 3620 l0 -220 226 0 226 0 -6 23 c-3 12 -6 111 -6 220 l0 197
-220 0 -220 0 0 -220z"/>
<path d="M5420 3620 l0 -220 225 0 225 0 0 220 0 220 -225 0 -225 0 0 -220z"/>
<path d="M3170 3055 l0 -225 220 0 220 0 0 225 0 225 -220 0 -220 0 0 -225z"/>
<path d="M3730 3055 l0 -225 225 0 225 0 -2 223 -3 222 -222 3 -223 2 0 -225z"/>
<path d="M4290 3055 l0 -225 225 0 225 0 0 225 0 225 -225 0 -225 0 0 -225z"/>
<path d="M4860 3055 l0 -225 225 0 225 0 0 225 0 225 -225 0 -225 0 0 -225z"/>
<path d="M5420 3055 l0 -225 225 0 225 0 0 225 0 225 -225 0 -225 0 0 -225z"/>
<path d="M3170 2490 l0 -220 220 0 220 0 0 220 0 220 -220 0 -220 0 0 -220z"/>
<path d="M3730 2490 l0 -220 225 0 225 0 0 220 0 220 -225 0 -225 0 0 -220z"/>
<path d="M4290 2490 l0 -220 225 0 225 0 0 220 0 220 -225 0 -225 0 0 -220z"/>
<path d="M4860 2490 l0 -220 225 0 225 0 0 220 0 220 -225 0 -225 0 0 -220z"/>
<path d="M2930 1853 c0 -66 26 -136 66 -176 71 -71 20 -68 994 -65 l875 3
-935 134 c-514 73 -950 136 -967 139 -33 5 -33 4 -33 -35z"/>
</g>
</svg>
